<?xml version="1.0" encoding="UTF-8" standalone="no"?>
<!-- Created with Inkscape (http://www.inkscape.org/) -->

<svg
   version="1.1"
   id="svg192"
   width="58.202534"
   height="41.369331"
   viewBox="0 0 58.202534 41.369331"
   sodipodi:docname="triangulation.eps"
   xmlns:inkscape="http://www.inkscape.org/namespaces/inkscape"
   xmlns:sodipodi="http://sodipodi.sourceforge.net/DTD/sodipodi-0.dtd"
   xmlns="http://www.w3.org/2000/svg"
   xmlns:svg="http://www.w3.org/2000/svg">
  <defs
     id="defs196" />
  <sodipodi:namedview
     id="namedview194"
     pagecolor="#ffffff"
     bordercolor="#000000"
     borderopacity="0.25"
     inkscape:showpageshadow="2"
     inkscape:pageopacity="0.0"
     inkscape:pagecheckerboard="0"
     inkscape:deskcolor="#d1d1d1"
     showgrid="false" />
  <g
     id="g200"
     inkscape:groupmode="layer"
     inkscape:label="Page 1"
     transform="matrix(1.3333333,0,0,-1.3333333,-108.84946,164)">
    <g
       id="g202"
       transform="scale(0.1)">
      <path
         d="m 1041.41,944.531 c 0,-3.793 -3.21,-6.91 -7.11,-6.91 -3.91,0 -7.11,3.117 -7.11,6.91 0,3.828 3.2,6.989 7.11,6.989 3.9,0 7.11,-3.161 7.11,-6.989"
         style="fill:#43309b;fill-opacity:1;fill-rule:nonzero;stroke:none"
         id="path328" />
      <path
         d="m 1213.24,1010.66 c 0,-3.71 -3.04,-6.68 -6.79,-6.68 -3.75,0 -6.76,2.97 -6.76,6.68 0,3.72 3.01,6.72 6.76,6.72 3.75,0 6.79,-3 6.79,-6.72"
         style="fill:#f09112;fill-opacity:1;fill-rule:nonzero;stroke:none"
         id="path330" />
      <path
         d="m 1252.89,926.41 c 0,-3.711 -3.05,-6.68 -6.8,-6.68 -3.75,0 -6.75,2.969 -6.75,6.68 0,3.711 3,6.711 6.75,6.711 3.75,0 6.8,-3 6.8,-6.711"
         style="fill:#f09112;fill-opacity:1;fill-rule:nonzero;stroke:none"
         id="path332" />
      <path
         d="m 1085.62,933.828 c 0,-3.707 -3.04,-6.68 -6.79,-6.68 -3.75,0 -6.76,2.973 -6.76,6.68 0,3.711 3.01,6.723 6.76,6.723 3.75,0 6.79,-3.012 6.79,-6.723"
         style="fill:#f09112;fill-opacity:1;fill-rule:nonzero;stroke:none"
         id="path334" />
      <path
         d="m 1106.68,933.828 c 0,-3.707 -3.05,-6.68 -6.8,-6.68 -3.71,0 -6.76,2.973 -6.76,6.68 0,3.711 3.05,6.723 6.76,6.723 3.75,0 6.8,-3.012 6.8,-6.723"
         style="fill:#f09112;fill-opacity:1;fill-rule:nonzero;stroke:none"
         id="path336" />
      <path
         d="m 1081.91,1154.41 c 0,-3.71 -3.04,-6.71 -6.79,-6.71 -3.75,0 -6.76,3 -6.76,6.71 0,3.68 3.01,6.68 6.76,6.68 3.75,0 6.79,-3 6.79,-6.68"
         style="fill:#f09112;fill-opacity:1;fill-rule:nonzero;stroke:none"
         id="path338" />
      <path
         d="m 1174.84,1144.49 c 0,-3.71 -3.04,-6.72 -6.79,-6.72 -3.75,0 -6.76,3.01 -6.76,6.72 0,3.71 3.01,6.68 6.76,6.68 3.75,0 6.79,-2.97 6.79,-6.68"
         style="fill:#f09112;fill-opacity:1;fill-rule:nonzero;stroke:none"
         id="path340" />
      <path
         d="m 1126.52,1144.49 c 0,-3.71 -3.04,-6.72 -6.79,-6.72 -3.75,0 -6.8,3.01 -6.8,6.72 0,3.71 3.05,6.68 6.8,6.68 3.75,0 6.79,-2.97 6.79,-6.68"
         style="fill:#f09112;fill-opacity:1;fill-rule:nonzero;stroke:none"
         id="path342" />
      <path
         d="m 1169.88,1094.92 c 0,-3.71 -3.04,-6.72 -6.79,-6.72 -3.75,0 -6.76,3.01 -6.76,6.72 0,3.71 3.01,6.68 6.76,6.68 3.75,0 6.79,-2.97 6.79,-6.68"
         style="fill:#f09112;fill-opacity:1;fill-rule:nonzero;stroke:none"
         id="path344" />
      <path
         d="m 1117.85,1008.2 c 0,-3.71 -3.05,-6.72 -6.8,-6.72 -3.75,0 -6.79,3.01 -6.79,6.72 0,3.68 3.04,6.68 6.79,6.68 3.75,0 6.8,-3 6.8,-6.68"
         style="fill:#f09112;fill-opacity:1;fill-rule:nonzero;stroke:none"
         id="path346" />
      <path
         d="m 1136.41,1078.83 c 0,-3.71 -3.01,-6.72 -6.76,-6.72 -3.75,0 -6.8,3.01 -6.8,6.72 0,3.67 3.05,6.68 6.8,6.68 3.75,0 6.76,-3.01 6.76,-6.68"
         style="fill:#f09112;fill-opacity:1;fill-rule:nonzero;stroke:none"
         id="path348" />
      <path
         d="m 1200.86,1083.79 c 0,-3.71 -3.05,-6.72 -6.8,-6.72 -3.75,0 -6.76,3.01 -6.76,6.72 0,3.67 3.01,6.68 6.76,6.68 3.75,0 6.8,-3.01 6.8,-6.68"
         style="fill:#f09112;fill-opacity:1;fill-rule:nonzero;stroke:none"
         id="path350" />
      <path
         d="m 1169.49,1218.67 c 0,-3.71 -3.04,-6.72 -6.79,-6.72 -3.72,0 -6.76,3.01 -6.76,6.72 0,3.67 3.04,6.68 6.76,6.68 3.75,0 6.79,-3.01 6.79,-6.68"
         style="fill:#f09112;fill-opacity:1;fill-rule:nonzero;stroke:none"
         id="path356" />
      <path
         d="m 1149.65,1223.28 c 0,-3.67 -3.05,-6.68 -6.8,-6.68 -3.75,0 -6.76,3.01 -6.76,6.68 0,3.71 3.01,6.72 6.76,6.72 3.75,0 6.8,-3.01 6.8,-6.72"
         style="fill:#f09112;fill-opacity:1;fill-rule:nonzero;stroke:none"
         id="path358" />
      <path
         d="m 1135.2,1212.62 c 0,-3.71 -3.05,-6.68 -6.8,-6.68 -3.75,0 -6.8,2.97 -6.8,6.68 0,3.71 3.05,6.72 6.8,6.72 3.75,0 6.8,-3.01 6.8,-6.72"
         style="fill:#f09112;fill-opacity:1;fill-rule:nonzero;stroke:none"
         id="path360" />
      <path
         d="m 1167.38,1180.43 c 0,-3.71 -3,-6.72 -6.76,-6.72 -3.74,0 -6.79,3.01 -6.79,6.72 0,3.67 3.05,6.68 6.79,6.68 3.76,0 6.76,-3.01 6.76,-6.68"
         style="fill:#f09112;fill-opacity:1;fill-rule:nonzero;stroke:none"
         id="path362" />
      <path
         d="m 1199.61,1187.85 c 0,-3.71 -3.05,-6.72 -6.8,-6.72 -3.71,0 -6.76,3.01 -6.76,6.72 0,3.71 3.05,6.68 6.76,6.68 3.75,0 6.8,-2.97 6.8,-6.68"
         style="fill:#f09112;fill-opacity:1;fill-rule:nonzero;stroke:none"
         id="path364" />
      <path
         d="m 1136.41,1186.6 c 0,-3.71 -3.01,-6.68 -6.76,-6.68 -3.75,0 -6.8,2.97 -6.8,6.68 0,3.71 3.05,6.72 6.8,6.72 3.75,0 6.76,-3.01 6.76,-6.72"
         style="fill:#f09112;fill-opacity:1;fill-rule:nonzero;stroke:none"
         id="path366" />
      <path
         d="m 1156.88,1151.25 c 0,-3.71 -3.05,-6.68 -6.8,-6.68 -3.75,0 -6.76,2.97 -6.76,6.68 0,3.71 3.01,6.72 6.76,6.72 3.75,0 6.8,-3.01 6.8,-6.72"
         style="fill:#f09112;fill-opacity:1;fill-rule:nonzero;stroke:none"
         id="path368" />
      <path
         d="m 916.25,1176.09 c 0,-3.79 -3.16,-6.91 -7.109,-6.91 -3.911,0 -7.071,3.12 -7.071,6.91 0,3.83 3.16,6.96 7.071,6.96 3.949,0 7.109,-3.13 7.109,-6.96"
         style="fill:#43309b;fill-opacity:1;fill-rule:nonzero;stroke:none"
         id="path370" />
      <path
         d="m 882.301,1170.7 c 0,-3.82 -3.199,-6.91 -7.102,-6.91 -3.91,0 -7.109,3.09 -7.109,6.91 0,3.83 3.199,6.92 7.109,6.92 3.903,0 7.102,-3.09 7.102,-6.92"
         style="fill:#43309b;fill-opacity:1;fill-rule:nonzero;stroke:none"
         id="path372" />
      <path
         d="m 967.969,1162.97 c 0,-3.79 -3.168,-6.92 -7.11,-6.92 -3.91,0 -7.07,3.13 -7.07,6.92 0,3.87 3.16,6.95 7.07,6.95 3.942,0 7.11,-3.08 7.11,-6.95"
         style="fill:#43309b;fill-opacity:1;fill-rule:nonzero;stroke:none"
         id="path374" />
      <path
         d="m 964.879,1145.23 c 0,-3.82 -3.16,-6.91 -7.109,-6.91 -3.899,0 -7.071,3.09 -7.071,6.91 0,3.83 3.172,6.92 7.071,6.92 3.949,0 7.109,-3.09 7.109,-6.92"
         style="fill:#43309b;fill-opacity:1;fill-rule:nonzero;stroke:none"
         id="path376" />
      <path
         d="m 913.949,1144.45 c 0,-3.83 -3.211,-6.91 -7.109,-6.91 -3.91,0 -7.11,3.08 -7.11,6.91 0,3.83 3.2,6.92 7.11,6.92 3.898,0 7.109,-3.09 7.109,-6.92"
         style="fill:#43309b;fill-opacity:1;fill-rule:nonzero;stroke:none"
         id="path378" />
      <path
         d="m 882.301,1122.07 c 0,-3.83 -3.199,-6.91 -7.102,-6.91 -3.91,0 -7.109,3.08 -7.109,6.91 0,3.83 3.199,6.91 7.109,6.91 3.903,0 7.102,-3.08 7.102,-6.91"
         style="fill:#43309b;fill-opacity:1;fill-rule:nonzero;stroke:none"
         id="path380" />
      <path
         d="m 894.648,1091.17 c 0,-3.79 -3.199,-6.91 -7.109,-6.91 -3.91,0 -7.109,3.12 -7.109,6.91 0,3.87 3.199,6.95 7.109,6.95 3.91,0 7.109,-3.08 7.109,-6.95"
         style="fill:#43309b;fill-opacity:1;fill-rule:nonzero;stroke:none"
         id="path382" />
      <path
         d="m 917.809,1094.26 c 0,-3.79 -3.2,-6.92 -7.11,-6.92 -3.898,0 -7.109,3.13 -7.109,6.92 0,3.86 3.211,6.95 7.109,6.95 3.91,0 7.11,-3.09 7.11,-6.95"
         style="fill:#43309b;fill-opacity:1;fill-rule:nonzero;stroke:none"
         id="path384" />
      <path
         d="m 942.5,1102.77 c 0,-3.82 -3.16,-6.91 -7.109,-6.91 -3.911,0 -7.071,3.09 -7.071,6.91 0,3.83 3.16,6.92 7.071,6.92 3.949,0 7.109,-3.09 7.109,-6.92"
         style="fill:#43309b;fill-opacity:1;fill-rule:nonzero;stroke:none"
         id="path386" />
      <path
         d="m 979.57,1045.62 c 0,-3.78 -3.199,-6.91 -7.109,-6.91 -3.91,0 -7.109,3.13 -7.109,6.91 0,3.87 3.199,6.96 7.109,6.96 3.91,0 7.109,-3.09 7.109,-6.96"
         style="fill:#43309b;fill-opacity:1;fill-rule:nonzero;stroke:none"
         id="path388" />
      <path
         d="m 873.789,1020.94 c 0,-3.83 -3.168,-6.92 -7.109,-6.92 -3.91,0 -7.071,3.09 -7.071,6.92 0,3.83 3.161,6.91 7.071,6.91 3.941,0 7.109,-3.08 7.109,-6.91"
         style="fill:#43309b;fill-opacity:1;fill-rule:nonzero;stroke:none"
         id="path390" />
      <path
         d="m 847.539,970 c 0,-3.828 -3.16,-6.949 -7.109,-6.949 -3.91,0 -7.071,3.121 -7.071,6.949 0,3.828 3.161,6.91 7.071,6.91 3.949,0 7.109,-3.082 7.109,-6.91"
         style="fill:#43309b;fill-opacity:1;fill-rule:nonzero;stroke:none"
         id="path392" />
      <path
         d="m 830.551,949.922 c 0,-3.832 -3.172,-6.91 -7.11,-6.91 -3.91,0 -7.07,3.078 -7.07,6.91 0,3.828 3.16,6.918 7.07,6.918 3.938,0 7.11,-3.09 7.11,-6.918"
         style="fill:#43309b;fill-opacity:1;fill-rule:nonzero;stroke:none"
         id="path394" />
      <path
         d="m 1024.34,960.738 c 0,-3.828 -3.21,-6.949 -7.11,-6.949 -3.91,0 -7.11,3.121 -7.11,6.949 0,3.832 3.2,6.922 7.11,6.922 3.9,0 7.11,-3.09 7.11,-6.922"
         style="fill:#43309b;fill-opacity:1;fill-rule:nonzero;stroke:none"
         id="path396" />
      <path
         d="m 942.301,1203.01 c 0,-3.83 -3.16,-6.92 -7.102,-6.92 -3.91,0 -7.078,3.09 -7.078,6.92 0,3.83 3.168,6.91 7.078,6.91 3.942,0 7.102,-3.08 7.102,-6.91"
         style="fill:#43309b;fill-opacity:1;fill-rule:nonzero;stroke:none"
         id="path398" />
      <path
         d="m 919.34,1197.73 c 0,-3.82 -3.168,-6.91 -7.11,-6.91 -3.91,0 -7.07,3.09 -7.07,6.91 0,3.83 3.16,6.92 7.07,6.92 3.942,0 7.11,-3.09 7.11,-6.92"
         style="fill:#43309b;fill-opacity:1;fill-rule:nonzero;stroke:none"
         id="path400" />
      <path
         d="m 937.852,1190 c 0,-3.83 -3.161,-6.91 -7.114,-6.91 -3.898,0 -7.066,3.08 -7.066,6.91 0,3.83 3.168,6.91 7.066,6.91 3.953,0 7.114,-3.08 7.114,-6.91"
         style="fill:#43309b;fill-opacity:1;fill-rule:nonzero;stroke:none"
         id="path402" />
    </g>
  </g>
</svg>
