<svg viewBox="0 0 300 300" xmlns="http://www.w3.org/2000/svg" xmlns:xlink="http://www.w3.org/1999/xlink" id="svgQrWrapper" overflow="hidden"><svg xmlns="http://www.w3.org/2000/svg" xmlns:xlink="http://www.w3.org/1999/xlink" overflow="hidden"><g fill="none" transform="matrix(0.95 0 0 0.95 9 9)"><svg width="300" height="300" xmlns="http://www.w3.org/2000/svg" xmlns:xlink="http://www.w3.org/1999/xlink" overflow="hidden"><defs></defs><g fill="#000000"><rect x="5" y="105" width="10" height="10"/><rect x="5" y="145" width="10" height="10"/><rect x="5" y="155" width="10" height="10"/><rect x="5" y="185" width="10" height="10"/><rect x="5" y="195" width="10" height="10"/><rect x="15" y="115" width="10" height="10"/><rect x="15" y="125" width="10" height="10"/><rect x="15" y="155" width="10" height="10"/><rect x="15" y="185" width="10" height="10"/><rect x="15" y="195" width="10" height="10"/><rect x="25" y="95" width="10" height="10"/><rect x="25" y="105" width="10" height="10"/><rect x="25" y="125" width="10" height="10"/><rect x="25" y="135" width="10" height="10"/><rect x="25" y="145" width="10" height="10"/><rect x="25" y="155" width="10" height="10"/><rect x="25" y="175" width="10" height="10"/><rect x="35" y="85" width="10" height="10"/><rect x="35" y="95" width="10" height="10"/><rect x="35" y="105" width="10" height="10"/><rect x="35" y="115" width="10" height="10"/><rect x="35" y="165" width="10" height="10"/><rect x="35" y="175" width="10" height="10"/><rect x="35" y="185" width="10" height="10"/><rect x="35" y="195" width="10" height="10"/><rect x="45" y="95" width="10" height="10"/><rect x="45" y="115" width="10" height="10"/><rect x="45" y="135" width="10" height="10"/><rect x="45" y="155" width="10" height="10"/><rect x="45" y="175" width="10" height="10"/><rect x="45" y="205" width="10" height="10"/><rect x="55" y="85" width="10" height="10"/><rect x="55" y="95" width="10" height="10"/><rect x="55" y="105" width="10" height="10"/><rect x="55" y="145" width="10" height="10"/><rect x="55" y="165" width="10" height="10"/><rect x="55" y="205" width="10" height="10"/><rect x="65" y="85" width="10" height="10"/><rect x="65" y="105" width="10" height="10"/><rect x="65" y="125" width="10" height="10"/><rect x="65" y="145" width="10" height="10"/><rect x="65" y="165" width="10" height="10"/><rect x="65" y="185" width="10" height="10"/><rect x="65" y="205" width="10" height="10"/><rect x="75" y="85" width="10" height="10"/><rect x="75" y="105" width="10" height="10"/><rect x="75" y="115" width="10" height="10"/><rect x="75" y="125" width="10" height="10"/><rect x="75" y="145" width="10" height="10"/><rect x="75" y="155" width="10" height="10"/><rect x="75" y="165" width="10" height="10"/><rect x="75" y="185" width="10" height="10"/><rect x="75" y="205" width="10" height="10"/><rect x="85" y="15" width="10" height="10"/><rect x="85" y="25" width="10" height="10"/><rect x="85" y="65" width="10" height="10"/><rect x="85" y="105" width="10" height="10"/><rect x="85" y="115" width="10" height="10"/><rect x="85" y="125" width="10" height="10"/><rect x="85" y="135" width="10" height="10"/><rect x="85" y="145" width="10" height="10"/><rect x="85" y="155" width="10" height="10"/><rect x="85" y="175" width="10" height="10"/><rect x="85" y="185" width="10" height="10"/><rect x="85" y="195" width="10" height="10"/><rect x="85" y="205" width="10" height="10"/><rect x="85" y="225" width="10" height="10"/><rect x="85" y="235" width="10" height="10"/><rect x="85" y="255" width="10" height="10"/><rect x="95" y="5" width="10" height="10"/><rect x="95" y="15" width="10" height="10"/><rect x="95" y="45" width="10" height="10"/><rect x="95" y="55" width="10" height="10"/><rect x="95" y="75" width="10" height="10"/><rect x="95" y="95" width="10" height="10"/><rect x="95" y="105" width="10" height="10"/><rect x="95" y="115" width="10" height="10"/><rect x="95" y="125" width="10" height="10"/><rect x="95" y="165" width="10" height="10"/><rect x="95" y="185" width="10" height="10"/><rect x="95" y="215" width="10" height="10"/><rect x="95" y="225" width="10" height="10"/><rect x="95" y="235" width="10" height="10"/><rect x="95" y="255" width="10" height="10"/><rect x="95" y="265" width="10" height="10"/><rect x="95" y="275" width="10" height="10"/><rect x="95" y="285" width="10" height="10"/><rect x="105" y="25" width="10" height="10"/><rect x="105" y="35" width="10" height="10"/><rect x="105" y="45" width="10" height="10"/><rect x="105" y="65" width="10" height="10"/><rect x="105" y="95" width="10" height="10"/><rect x="105" y="115" width="10" height="10"/><rect x="105" y="125" width="10" height="10"/><rect x="105" y="155" width="10" height="10"/><rect x="105" y="175" width="10" height="10"/><rect x="105" y="185" width="10" height="10"/><rect x="105" y="195" width="10" height="10"/><rect x="105" y="205" width="10" height="10"/><rect x="105" y="215" width="10" height="10"/><rect x="105" y="245" width="10" height="10"/><rect x="105" y="285" width="10" height="10"/><rect x="115" y="15" width="10" height="10"/><rect x="115" y="25" width="10" height="10"/><rect x="115" y="35" width="10" height="10"/><rect x="115" y="105" width="10" height="10"/><rect x="115" y="115" width="10" height="10"/><rect x="115" y="135" width="10" height="10"/><rect x="115" y="165" width="10" height="10"/><rect x="115" y="185" width="10" height="10"/><rect x="115" y="195" width="10" height="10"/><rect x="115" y="225" width="10" height="10"/><rect x="115" y="245" width="10" height="10"/><rect x="115" y="255" width="10" height="10"/><rect x="125" y="25" width="10" height="10"/><rect x="125" y="35" width="10" height="10"/><rect x="125" y="55" width="10" height="10"/><rect x="125" y="65" width="10" height="10"/><rect x="125" y="85" width="10" height="10"/><rect x="125" y="95" width="10" height="10"/><rect x="125" y="105" width="10" height="10"/><rect x="125" y="115" width="10" height="10"/><rect x="125" y="135" width="10" height="10"/><rect x="125" y="145" width="10" height="10"/><rect x="125" y="155" width="10" height="10"/><rect x="125" y="205" width="10" height="10"/><rect x="125" y="215" width="10" height="10"/><rect x="125" y="225" width="10" height="10"/><rect x="125" y="255" width="10" height="10"/><rect x="125" y="265" width="10" height="10"/><rect x="125" y="275" width="10" height="10"/><rect x="135" y="25" width="10" height="10"/><rect x="135" y="55" width="10" height="10"/><rect x="135" y="125" width="10" height="10"/><rect x="135" y="135" width="10" height="10"/><rect x="135" y="145" width="10" height="10"/><rect x="135" y="165" width="10" height="10"/><rect x="135" y="175" width="10" height="10"/><rect x="135" y="185" width="10" height="10"/><rect x="135" y="195" width="10" height="10"/><rect x="135" y="205" width="10" height="10"/><rect x="135" y="225" width="10" height="10"/><rect x="135" y="255" width="10" height="10"/><rect x="135" y="285" width="10" height="10"/><rect x="145" y="65" width="10" height="10"/><rect x="145" y="95" width="10" height="10"/><rect x="145" y="105" width="10" height="10"/><rect x="145" y="125" width="10" height="10"/><rect x="145" y="155" width="10" height="10"/><rect x="145" y="165" width="10" height="10"/><rect x="145" y="195" width="10" height="10"/><rect x="145" y="215" width="10" height="10"/><rect x="145" y="225" width="10" height="10"/><rect x="145" y="255" width="10" height="10"/><rect x="145" y="265" width="10" height="10"/><rect x="145" y="275" width="10" height="10"/><rect x="145" y="285" width="10" height="10"/><rect x="155" y="5" width="10" height="10"/><rect x="155" y="15" width="10" height="10"/><rect x="155" y="35" width="10" height="10"/><rect x="155" y="55" width="10" height="10"/><rect x="155" y="75" width="10" height="10"/><rect x="155" y="85" width="10" height="10"/><rect x="155" y="105" width="10" height="10"/><rect x="155" y="155" width="10" height="10"/><rect x="155" y="175" width="10" height="10"/><rect x="155" y="205" width="10" height="10"/><rect x="155" y="215" width="10" height="10"/><rect x="155" y="255" width="10" height="10"/><rect x="155" y="275" width="10" height="10"/><rect x="165" y="5" width="10" height="10"/><rect x="165" y="25" width="10" height="10"/><rect x="165" y="55" width="10" height="10"/><rect x="165" y="65" width="10" height="10"/><rect x="165" y="85" width="10" height="10"/><rect x="165" y="95" width="10" height="10"/><rect x="165" y="125" width="10" height="10"/><rect x="165" y="175" width="10" height="10"/><rect x="165" y="225" width="10" height="10"/><rect x="165" y="235" width="10" height="10"/><rect x="175" y="15" width="10" height="10"/><rect x="175" y="45" width="10" height="10"/><rect x="175" y="85" width="10" height="10"/><rect x="175" y="125" width="10" height="10"/><rect x="175" y="145" width="10" height="10"/><rect x="175" y="195" width="10" height="10"/><rect x="175" y="205" width="10" height="10"/><rect x="175" y="225" width="10" height="10"/><rect x="175" y="235" width="10" height="10"/><rect x="175" y="265" width="10" height="10"/><rect x="175" y="285" width="10" height="10"/><rect x="185" y="5" width="10" height="10"/><rect x="185" y="15" width="10" height="10"/><rect x="185" y="25" width="10" height="10"/><rect x="185" y="45" width="10" height="10"/><rect x="185" y="55" width="10" height="10"/><rect x="185" y="65" width="10" height="10"/><rect x="185" y="115" width="10" height="10"/><rect x="185" y="125" width="10" height="10"/><rect x="185" y="145" width="10" height="10"/><rect x="185" y="155" width="10" height="10"/><rect x="185" y="185" width="10" height="10"/><rect x="185" y="195" width="10" height="10"/><rect x="185" y="205" width="10" height="10"/><rect x="185" y="245" width="10" height="10"/><rect x="185" y="255" width="10" height="10"/><rect x="185" y="285" width="10" height="10"/><rect x="195" y="25" width="10" height="10"/><rect x="195" y="35" width="10" height="10"/><rect x="195" y="55" width="10" height="10"/><rect x="195" y="75" width="10" height="10"/><rect x="195" y="95" width="10" height="10"/><rect x="195" y="105" width="10" height="10"/><rect x="195" y="125" width="10" height="10"/><rect x="195" y="135" width="10" height="10"/><rect x="195" y="205" width="10" height="10"/><rect x="195" y="215" width="10" height="10"/><rect x="195" y="225" width="10" height="10"/><rect x="195" y="255" width="10" height="10"/><rect x="195" y="285" width="10" height="10"/><rect x="205" y="5" width="10" height="10"/><rect x="205" y="15" width="10" height="10"/><rect x="205" y="35" width="10" height="10"/><rect x="205" y="65" width="10" height="10"/><rect x="205" y="75" width="10" height="10"/><rect x="205" y="95" width="10" height="10"/><rect x="205" y="125" width="10" height="10"/><rect x="205" y="135" width="10" height="10"/><rect x="205" y="155" width="10" height="10"/><rect x="205" y="165" width="10" height="10"/><rect x="205" y="185" width="10" height="10"/><rect x="205" y="205" width="10" height="10"/><rect x="205" y="215" width="10" height="10"/><rect x="205" y="225" width="10" height="10"/><rect x="205" y="235" width="10" height="10"/><rect x="205" y="245" width="10" height="10"/><rect x="205" y="255" width="10" height="10"/><rect x="205" y="275" width="10" height="10"/><rect x="215" y="85" width="10" height="10"/><rect x="215" y="95" width="10" height="10"/><rect x="215" y="105" width="10" height="10"/><rect x="215" y="135" width="10" height="10"/><rect x="215" y="155" width="10" height="10"/><rect x="215" y="165" width="10" height="10"/><rect x="215" y="205" width="10" height="10"/><rect x="215" y="245" width="10" height="10"/><rect x="215" y="255" width="10" height="10"/><rect x="215" y="285" width="10" height="10"/><rect x="225" y="115" width="10" height="10"/><rect x="225" y="135" width="10" height="10"/><rect x="225" y="155" width="10" height="10"/><rect x="225" y="175" width="10" height="10"/><rect x="225" y="185" width="10" height="10"/><rect x="225" y="205" width="10" height="10"/><rect x="225" y="225" width="10" height="10"/><rect x="225" y="245" width="10" height="10"/><rect x="225" y="255" width="10" height="10"/><rect x="225" y="265" width="10" height="10"/><rect x="225" y="285" width="10" height="10"/><rect x="235" y="95" width="10" height="10"/><rect x="235" y="125" width="10" height="10"/><rect x="235" y="135" width="10" height="10"/><rect x="235" y="145" width="10" height="10"/><rect x="235" y="155" width="10" height="10"/><rect x="235" y="185" width="10" height="10"/><rect x="235" y="195" width="10" height="10"/><rect x="235" y="205" width="10" height="10"/><rect x="235" y="245" width="10" height="10"/><rect x="235" y="255" width="10" height="10"/><rect x="235" y="275" width="10" height="10"/><rect x="235" y="285" width="10" height="10"/><rect x="245" y="105" width="10" height="10"/><rect x="245" y="135" width="10" height="10"/><rect x="245" y="155" width="10" height="10"/><rect x="245" y="165" width="10" height="10"/><rect x="245" y="175" width="10" height="10"/><rect x="245" y="185" width="10" height="10"/><rect x="245" y="195" width="10" height="10"/><rect x="245" y="205" width="10" height="10"/><rect x="245" y="215" width="10" height="10"/><rect x="245" y="225" width="10" height="10"/><rect x="245" y="235" width="10" height="10"/><rect x="245" y="245" width="10" height="10"/><rect x="255" y="105" width="10" height="10"/><rect x="255" y="115" width="10" height="10"/><rect x="255" y="125" width="10" height="10"/><rect x="255" y="145" width="10" height="10"/><rect x="255" y="165" width="10" height="10"/><rect x="255" y="175" width="10" height="10"/><rect x="255" y="185" width="10" height="10"/><rect x="255" y="195" width="10" height="10"/><rect x="255" y="205" width="10" height="10"/><rect x="255" y="235" width="10" height="10"/><rect x="255" y="245" width="10" height="10"/><rect x="255" y="265" width="10" height="10"/><rect x="255" y="275" width="10" height="10"/><rect x="265" y="85" width="10" height="10"/><rect x="265" y="105" width="10" height="10"/><rect x="265" y="115" width="10" height="10"/><rect x="265" y="125" width="10" height="10"/><rect x="265" y="165" width="10" height="10"/><rect x="265" y="215" width="10" height="10"/><rect x="265" y="245" width="10" height="10"/><rect x="265" y="275" width="10" height="10"/><rect x="265" y="285" width="10" height="10"/><rect x="275" y="85" width="10" height="10"/><rect x="275" y="105" width="10" height="10"/><rect x="275" y="115" width="10" height="10"/><rect x="275" y="125" width="10" height="10"/><rect x="275" y="145" width="10" height="10"/><rect x="275" y="155" width="10" height="10"/><rect x="275" y="165" width="10" height="10"/><rect x="285" y="115" width="10" height="10"/><rect x="285" y="135" width="10" height="10"/><rect x="285" y="165" width="10" height="10"/><rect x="285" y="205" width="10" height="10"/><rect x="285" y="235" width="10" height="10"/><rect x="285" y="245" width="10" height="10"/><rect x="285" y="285" width="10" height="10"/></g><g fill="#000000"><rect x="5" y="5" width="10" height="10"/><rect x="5" y="15" width="10" height="10"/><rect x="5" y="25" width="10" height="10"/><rect x="5" y="35" width="10" height="10"/><rect x="5" y="45" width="10" height="10"/><rect x="5" y="55" width="10" height="10"/><rect x="5" y="65" width="10" height="10"/><rect x="15" y="5" width="10" height="10"/><rect x="15" y="65" width="10" height="10"/><rect x="25" y="5" width="10" height="10"/><rect x="25" y="65" width="10" height="10"/><rect x="35" y="5" width="10" height="10"/><rect x="35" y="65" width="10" height="10"/><rect x="45" y="5" width="10" height="10"/><rect x="45" y="65" width="10" height="10"/><rect x="55" y="5" width="10" height="10"/><rect x="55" y="65" width="10" height="10"/><rect x="65" y="5" width="10" height="10"/><rect x="65" y="15" width="10" height="10"/><rect x="65" y="25" width="10" height="10"/><rect x="65" y="35" width="10" height="10"/><rect x="65" y="45" width="10" height="10"/><rect x="65" y="55" width="10" height="10"/><rect x="65" y="65" width="10" height="10"/></g><g fill="#000000"><rect x="25" y="25" width="10" height="10"/><rect x="25" y="35" width="10" height="10"/><rect x="25" y="45" width="10" height="10"/><rect x="35" y="25" width="10" height="10"/><rect x="35" y="35" width="10" height="10"/><rect x="35" y="45" width="10" height="10"/><rect x="45" y="25" width="10" height="10"/><rect x="45" y="35" width="10" height="10"/><rect x="45" y="45" width="10" height="10"/></g><g fill="#000000"><rect x="225" y="5" width="10" height="10"/><rect x="225" y="15" width="10" height="10"/><rect x="225" y="25" width="10" height="10"/><rect x="225" y="35" width="10" height="10"/><rect x="225" y="45" width="10" height="10"/><rect x="225" y="55" width="10" height="10"/><rect x="225" y="65" width="10" height="10"/><rect x="235" y="5" width="10" height="10"/><rect x="235" y="65" width="10" height="10"/><rect x="245" y="5" width="10" height="10"/><rect x="245" y="65" width="10" height="10"/><rect x="255" y="5" width="10" height="10"/><rect x="255" y="65" width="10" height="10"/><rect x="265" y="5" width="10" height="10"/><rect x="265" y="65" width="10" height="10"/><rect x="275" y="5" width="10" height="10"/><rect x="275" y="65" width="10" height="10"/><rect x="285" y="5" width="10" height="10"/><rect x="285" y="15" width="10" height="10"/><rect x="285" y="25" width="10" height="10"/><rect x="285" y="35" width="10" height="10"/><rect x="285" y="45" width="10" height="10"/><rect x="285" y="55" width="10" height="10"/><rect x="285" y="65" width="10" height="10"/></g><g fill="#000000"><rect x="245" y="25" width="10" height="10"/><rect x="245" y="35" width="10" height="10"/><rect x="245" y="45" width="10" height="10"/><rect x="255" y="25" width="10" height="10"/><rect x="255" y="35" width="10" height="10"/><rect x="255" y="45" width="10" height="10"/><rect x="265" y="25" width="10" height="10"/><rect x="265" y="35" width="10" height="10"/><rect x="265" y="45" width="10" height="10"/></g><g fill="#000000"><rect x="5" y="225" width="10" height="10"/><rect x="5" y="235" width="10" height="10"/><rect x="5" y="245" width="10" height="10"/><rect x="5" y="255" width="10" height="10"/><rect x="5" y="265" width="10" height="10"/><rect x="5" y="275" width="10" height="10"/><rect x="5" y="285" width="10" height="10"/><rect x="15" y="225" width="10" height="10"/><rect x="15" y="285" width="10" height="10"/><rect x="25" y="225" width="10" height="10"/><rect x="25" y="285" width="10" height="10"/><rect x="35" y="225" width="10" height="10"/><rect x="35" y="285" width="10" height="10"/><rect x="45" y="225" width="10" height="10"/><rect x="45" y="285" width="10" height="10"/><rect x="55" y="225" width="10" height="10"/><rect x="55" y="285" width="10" height="10"/><rect x="65" y="225" width="10" height="10"/><rect x="65" y="235" width="10" height="10"/><rect x="65" y="245" width="10" height="10"/><rect x="65" y="255" width="10" height="10"/><rect x="65" y="265" width="10" height="10"/><rect x="65" y="275" width="10" height="10"/><rect x="65" y="285" width="10" height="10"/></g><g fill="#000000"><rect x="25" y="245" width="10" height="10"/><rect x="25" y="255" width="10" height="10"/><rect x="25" y="265" width="10" height="10"/><rect x="35" y="245" width="10" height="10"/><rect x="35" y="255" width="10" height="10"/><rect x="35" y="265" width="10" height="10"/><rect x="45" y="245" width="10" height="10"/><rect x="45" y="255" width="10" height="10"/><rect x="45" y="265" width="10" height="10"/></g></svg></g></svg></svg>