<svg width="652" height="652" viewBox="0 0 652 652" xmlns="http://www.w3.org/2000/svg" xmlns:xlink="http://www.w3.org/1999/xlink" overflow="hidden"><linearGradient x1="248.575" y1="321.763" x2="262.558" y2="321.763" gradientUnits="userSpaceOnUse" id="linearGradient1"><stop offset="1e-05" stop-color="#FFFFFF" stop-opacity="1"/><stop offset="1" stop-color="#FFFFFF" stop-opacity="0"/></linearGradient><linearGradient x1="276.664" y1="321.71" x2="372.851" y2="314.718" gradientUnits="userSpaceOnUse" id="linearGradient2"><stop offset="1e-05" stop-color="#FFFFFF" stop-opacity="0"/><stop offset="0.1" stop-color="#FFFFFF" stop-opacity="0.1"/><stop offset="0.2" stop-color="#FFFFFF" stop-opacity="0.3"/><stop offset="0.3" stop-color="#FFFFFF" stop-opacity="0.5"/><stop offset="0.4" stop-color="#FFFFFF" stop-opacity="0.7"/><stop offset="0.5" stop-color="#FFFFFF" stop-opacity="0.8"/><stop offset="0.6" stop-color="#FFFFFF" stop-opacity="0.9"/><stop offset="0.7" stop-color="#FFFFFF" stop-opacity="0.9"/><stop offset="0.8" stop-color="#FFFFFF" stop-opacity="1"/><stop offset="1" stop-color="#FFFFFF" stop-opacity="1"/></linearGradient><path d="M172.5 173.5 477.6 173.5 477.6 478.6 172.5 478.6 172.5 173.5Z" id="Path" stroke="none" fill="#EF3730"/><path d="M206.8 313.3C207.2 320.1 219.9 326 239.9 328.6 244.3 329.2 248.8 329.7 253.2 329.9L262.5 330.3 262.5 328.8 252.1 328.4C248.9 328.4 245.5 328 242.4 327.6 220.4 324.8 208.9 318.5 208.5 313.4L206.8 313.4Z" id="path1" stroke="none" fill="url(#linearGradient1)"/><path d="M438.6 298.5C438.4 292.1 426.3 287.9 402.6 285.2 389.5 283.9 376.1 283.3 362.8 283.3 349.7 283.3 335.7 283.7 321.3 284.8 296.9 286.3 272.6 289.5 248.6 294.3L243.3 295.6 240.5 296.4C225 300 206.6 306.1 207 313.3L208.7 313.3C208.5 308.6 220.4 302.7 240.9 297.8L245.8 296.7 249 296.1C272.9 291.4 297.1 288.5 321.5 287.2 334.4 286.4 347.3 285.9 359.6 285.9 373.8 285.9 388 286.5 402.2 288 425.9 290.5 434.4 295.2 434.6 298.6L438.6 298.5Z" id="path2" stroke="none" fill="#FFFFFF"/><path d="M295.2 268.4 241.2 268.4 216.8 365.4 271.5 365.4 275.1 350.4 238.9 350.4 245.9 322.6 276.8 322.6 280.6 307.8 249.2 307.8 255.1 283.6 291.1 283.6 294.9 268.3 295.2 268.3ZM289.7 244.4C287.6 244.4 285.5 245.7 281.6 247.8L281.2 247.8 262.1 259.5 259.3 261.2 262.5 261.2 266.7 261.8 266.9 261.8 288.7 255C291.2 254.4 293.8 253.5 294.6 250.8 295 249.5 294.6 248 294 247 293.4 245.9 292.3 245.3 291.2 244.9 290.6 244.7 290.1 244.7 289.5 244.7L289.5 244.4ZM323.8 330.9 314.3 331.5 311.5 331.5 306 354.4 324 354.4 329.9 330.2 323.5 330.8 323.8 330.9ZM302.8 257.6 299 272.4 326.3 272.4 325.5 275.2 313.2 325 316 324.8 323.2 324.2 331.7 323.6 344.2 272.8 369.6 272.8 372.8 260.3 373.4 258 302.8 257.6ZM429.1 257.1C422.1 252.9 414.1 250.7 406 250.7 397.3 250.5 389.1 253.7 382.9 259.6 377.8 264.9 374.8 271.9 374.8 279.3 374.8 286.7 378 293.9 383.3 299 385.4 301.3 387.5 303.4 389.9 305.4 392 307.3 393.9 309.4 395.8 311.5 396.2 312.1 396.6 312.8 397.1 313.4L397.3 313.4 403.2 311.9 414.9 308.5C414.1 306.8 413 305.1 411.7 303.6 410 301.5 408.1 299.6 406.2 297.7L403.2 294.9C401.7 293.6 400.2 292.1 398.8 290.7 395.4 287.7 393.3 283.3 393.1 278.8 393.1 271.4 399.2 265.2 406.7 265.2 406.9 265.2 407.1 265.2 407.3 265.2 413.7 265.4 419.8 268.2 424.2 272.6L425.7 273.9 426.1 272.2 429.5 258.4 429.5 258 429.7 257.4 429.1 257.1ZM417.2 315C411.9 316.7 406.4 318.4 400.9 319.7L399.4 320.1C399.4 320.7 399.4 321.4 399.4 322 399.4 329.8 394.5 337.7 383.3 337.7 375.9 337.7 368.9 334.5 362.3 328.2L361 327.1 360.6 328.8 357 343.6 356.8 344.4 357.4 344.8 359.1 345.9C366.7 350.1 375.4 352.3 384.3 352.3 406.3 352.3 418 336.8 418 321.6 418.1 319.4 417.6 317.3 417.2 315L417.2 315Z" id="path3" stroke="none" fill="#FFFFFF"/><path d="M434.6 298.7C434.6 300.8 428.2 306.5 403.5 312.9 382.3 318.4 353.7 322.6 323.4 325L282.5 327.8 282 327.8 281.4 332.7 281.8 332.7C288.4 332.5 316.5 330.6 323.5 329.9 343.8 328.4 364 325.9 384.1 322.3 391.3 320.8 398.3 319.3 404.7 317.6 428 311.7 439 305.5 438.6 298.5L434.6 298.7Z" id="path4" stroke="none" fill="url(#linearGradient2)"/><path d="M190.7 405.7 190.7 386.6 201.3 386.6 201.3 388.5 193.2 388.5 193.2 394.6 200.4 394.6 200.4 396.5 193.2 396.5 193.2 403.7 202.5 403.7 201.4 405.6C201.5 405.7 190.7 405.7 190.7 405.7ZM204.1 405.7 204.1 392.4 206.4 392.4 206.4 394.5 207.9 392.4C209.2 392 210.4 392 210.7 392 211.3 392 212.8 392.2 214.1 393.1 215.4 394.2 215.4 395.6 215.4 396.9L215.4 405.6 213 405.6 213 397.8C213 395.5 212.6 393.8 209.8 393.8 208.7 393.8 207.5 394.2 206.2 394.9L206.2 405.5 204.1 405.5 204.1 405.7ZM226.3 404.8C225.9 405 225 405 224 405 220 405 217.6 402.2 217.6 398.6 217.6 395.2 219.7 391.6 224.8 391.6 225.6 391.6 227.8 391.6 229.7 392.7L229.7 403.5C229.7 405 229.7 406.3 228.9 407.5 227.8 409.4 225.7 410.7 223 410.7 222.2 410.7 220 410.5 218.1 409.4L218.1 407.1C218.5 407.3 218.7 407.7 219.6 408.2 220.7 408.6 221.9 408.8 223 408.8 224.9 408.8 226.4 408.2 227 406.3 227.4 405.2 227.4 404.4 227.4 402.7L226.3 404.8ZM227.4 394.4C226.8 394.2 225.7 394 224.6 394 221.8 394 219.9 395.9 219.9 398.9 219.9 402.1 221.8 403.6 224.1 403.6 225.6 403.6 226.9 403 227.3 402.8L227.3 394.4ZM235.2 387.7C235.2 388.5 234.6 389 233.9 389 233.3 389 232.6 388.4 232.6 387.7 232.6 387 233.2 386.4 233.9 386.4 234.6 386.4 235.2 386.8 235.2 387.7M235 405.7 232.7 405.7 232.7 392.4 235 392.4 235 405.7ZM238.2 405.7 238.2 392.4 240.5 392.4 240.5 394.5 242 392.4C243.3 392 244.5 392 244.8 392 245.4 392 246.9 392.2 248.2 393.1 249.5 394.2 249.5 395.6 249.5 396.9L249.5 405.6 247.2 405.6 247.2 397.8C247.2 395.5 246.8 393.8 244 393.8 242.9 393.8 241.7 394.2 240.4 394.9L240.4 405.5 238.3 405.5 238.3 405.7ZM261.5 405.7C261.1 405.9 260 406.1 258.5 406.1 254.5 406.1 251.5 403.8 251.5 399.1 251.5 394.9 254 392.1 257.6 392.1 259.3 392.1 260.8 392.7 261.8 394.2 262.9 395.7 263.1 398 263.1 399.1L254 399.1C254 399.9 254 401.6 255.3 402.9 256.4 404 257.8 404.4 259.1 404.4 260.8 404.4 262.1 404 262.7 403.6L261.5 405.7ZM260.9 397.2C260.9 396.6 260.7 395.5 260.1 394.9 259.7 394.5 259 394.1 258 394.1 256.3 394.1 255 395.2 254.6 397.3L260.9 397.3ZM274.6 405.7C274.2 405.9 273.1 406.1 271.6 406.1 267.6 406.1 264.6 403.8 264.6 399.1 264.6 394.9 267.1 392.1 270.7 392.1 272.4 392.1 273.9 392.7 274.9 394.2 276 395.7 276.2 398 276.2 399.1L267.1 399.1C267.1 399.9 267.1 401.6 268.4 402.9 269.5 404 270.9 404.4 272.2 404.4 273.9 404.4 275.2 404 275.8 403.6L274.6 405.7ZM273.8 397.2C273.8 396.6 273.6 395.5 273 394.9 272.6 394.5 271.9 394.1 270.9 394.1 269.4 394.1 267.9 395.2 267.5 397.3L273.8 397.3ZM280.6 405.7 278.3 405.7 278.3 392.4 280.6 392.4 280.6 394.3 281.9 392.6C282.3 392.4 283 392.2 284.2 392.2 284.8 392.2 285.3 392.4 285.7 392.4L285.7 394.5C285.1 394.3 284.6 394.1 283.6 394.1 282.3 394.1 281.3 394.7 280.6 395.2L280.6 405.7 280.6 405.7ZM289.7 387.7C289.7 388.5 289.1 389 288.4 389 287.7 389 287.1 388.4 287.1 387.7 287.1 387 287.7 386.4 288.4 386.4 289.1 386.4 289.7 386.8 289.7 387.7M289.5 405.7 287.2 405.7 287.2 392.4 289.5 392.4 289.5 405.7ZM292.6 405.7 292.6 392.4 294.9 392.4 294.9 394.5 296.4 392.4C297.7 392 298.9 392 299.2 392 299.8 392 301.3 392.2 302.6 393.1 303.9 394.2 303.9 395.6 303.9 396.9L303.9 405.6 301.6 405.6 301.6 397.8C301.6 395.5 301.2 393.8 298.4 393.8 297.3 393.8 296.1 394.2 294.8 394.9L294.8 405.5 292.7 405.5 292.7 405.7ZM314.7 404.8C314.3 405 313.4 405 312.4 405 308.4 405 306 402.2 306 398.6 306 395.2 308.1 391.6 313.2 391.6 314 391.6 316.2 391.6 318.1 392.7L318.1 403.5C318.1 405 318.1 406.3 317.3 407.5 316.2 409.4 314.1 410.7 311.4 410.7 310.6 410.7 308.4 410.5 306.5 409.4L306.5 407.1C306.9 407.3 307.1 407.7 308 408.2 309.1 408.6 310.3 408.8 311.4 408.8 313.3 408.8 314.8 408.2 315.4 406.3 315.8 405.2 315.8 404.4 315.8 402.7L314.7 404.8ZM315.9 394.4C315.3 394.2 314.2 394 313.1 394 310.3 394 308.4 395.9 308.4 398.9 308.4 402.1 310.3 403.6 312.6 403.6 314.1 403.6 315.4 403 315.8 402.8L315.8 394.4ZM332.3 405.7 330 405.7 330 394 328.3 394 329.6 392.3 330 392.3 330 390.4C330 388.1 331.1 386.2 334 386.2 334.6 386.2 335.1 386.4 335.5 386.4L335.5 388.3C335.1 388.1 334.9 388.1 334.2 388.1 332.5 388.1 332.3 389.4 332.3 390.9L332.3 392.4 335.1 392.4 335.1 394.1 332.3 394.1 332.3 405.7 332.3 405.7ZM341.6 406.1C337.8 406.1 335.5 403.6 335.5 399.3 335.5 395.3 337.8 392.1 341.9 392.1 345.5 392.1 348 394.9 348 399.1 347.9 403.3 345.4 406.1 341.6 406.1M345.4 399.1C345.4 396.8 344.3 394 341.6 394 339.3 394 337.8 395.9 337.8 399.3 337.8 400.4 338 401.8 338.6 402.9 339.2 404 340.5 404.4 341.4 404.4 344.1 404.2 345.4 401.4 345.4 399.1M352.4 405.7 350.1 405.7 350.1 392.4 352.4 392.4 352.4 394.3 353.7 392.6C354.1 392.4 354.8 392.2 356 392.2 356.6 392.2 357.1 392.4 357.5 392.4L357.5 394.5C356.9 394.3 356.4 394.1 355.4 394.1 354.1 394.1 353.1 394.7 352.4 395.2L352.4 405.7 352.4 405.7ZM369.5 405.7 367 405.7 367 386.6 369.5 386.6 369.5 405.7ZM372.9 405.7 372.9 392.4 375.2 392.4 375.2 394.5 376.7 392.4C378 392 379.2 392 379.5 392 380.1 392 381.6 392.2 382.9 393.1 384.2 394.2 384.2 395.6 384.2 396.9L384.2 405.6 381.9 405.6 381.9 397.8C381.9 395.5 381.5 393.8 378.7 393.8 377.6 393.8 376.4 394.2 375.1 394.9L375.1 405.5 373 405.5 373 405.7ZM398.6 405.7 396.3 405.7 396.3 403.8 395 405.7C394.6 405.9 393.9 406.1 392.9 406.1 388.5 406.1 386.3 403.3 386.3 399.3 386.3 395.5 388.6 392.1 392.7 392.1 393.3 392.1 394.8 392.3 396.1 392.9L396.1 386.8 398.4 386.8 398.4 405.7 398.6 405.7ZM396.5 394.9C395.7 394.5 394.6 394.1 393.5 394.1 393.1 394.1 392 394.1 391 394.9 389.7 396 389.3 397.7 389.3 399.3 389.3 402.3 391 404.2 393.5 404.2 395 404.2 396 403.8 396.7 403.6L396.7 394.9 396.5 394.9ZM413 405.7 410.7 405.7 410.7 403.6 409.2 405.7C407.9 406.1 406.7 406.1 406.4 406.1 402.8 406.1 401.7 404 401.7 401.2L401.7 392.3 404 392.3 404 400.4C404 402.5 404.4 404.2 407.2 404.2 408.3 404.2 409.7 403.8 410.8 403.1L410.8 392.5 413.1 392.5 413.1 405.6 413 405.6ZM420.8 398.2C422.1 398.8 423.6 399.5 423.6 401.8 423.6 403.9 421.9 405.8 418.9 405.8 417.6 405.8 416.4 405.4 415.3 405L415.3 402.9C415.7 403.1 415.9 403.3 416.6 403.5 417.2 403.7 417.9 403.9 418.7 403.9 420.4 403.9 421.2 402.6 421.2 401.8 421.2 400.3 419.9 399.9 419.1 399.5L418.3 399.1C417.2 398.7 415.5 398 415.5 395.5 415.5 393.2 417.4 391.5 419.9 391.5 421.4 391.5 422.7 392.1 423.1 392.3L423.1 394.4C422.3 393.8 421.4 393.3 420.3 393.3 418.6 393.3 417.8 394.4 417.8 395.4 417.8 396.4 418.6 396.9 419.5 397.3L420.8 398.2ZM430.6 405.9C430.2 405.9 429.8 406.1 429.3 406.1 428.5 406.1 427.4 405.9 427 405 426.4 404.2 426.4 403.5 426.4 402L426.4 394 424.9 394 426.2 392.3 426.4 392.3 426.4 389.8 428.7 389.2 428.7 392.6 431.5 392.6 431.5 394.3 428.7 394.3 428.7 401.3C428.7 402.8 428.7 403 428.7 403.2 428.9 404.5 430 404.5 430.4 404.5 430.6 404.5 431.2 404.5 432.1 404.1L430.6 405.9ZM435.7 405.7 433.4 405.7 433.4 392.4 435.7 392.4 435.7 394.3 437 392.6C437.4 392.4 438.1 392.2 439.3 392.2 439.9 392.2 440.4 392.4 440.8 392.4L440.8 394.5C440.2 394.3 439.7 394.1 438.7 394.1 437.4 394.1 436.4 394.7 435.7 395.2L435.7 405.7 435.7 405.7ZM453.9 392.3 448.6 406.3C448.2 407.4 447.5 408.8 446.5 409.9 445.7 410.5 444.4 411.2 442.9 411.2 442.7 411.2 442.1 411.2 441.8 411.2L442.4 409.5C444.5 409.5 445.4 409.1 446.6 405.9L441.5 392.6 443.8 392.6 447.6 403.4 451.2 392.6 453.7 392.6 453.7 392.3Z" id="path5" stroke="none" fill="#FFFFFF"/></svg>