<svg width="652" height="652" viewBox="0 0 652 652" xmlns="http://www.w3.org/2000/svg" xmlns:xlink="http://www.w3.org/1999/xlink" overflow="hidden"><path d="M170.9 405.1 133.5 405.1 151.4 317.1 111.6 405.1 77.5 405.1 73.9 317.1 55.8 405.1 20.3 405.1 43.5 293.1 104.6 293.1 104.7 359.3 132.3 293.1 194 293.1" id="Path" stroke="none" fill="#41B0F6"/><path d="M227.5 405.1 188.2 405.1 205.8 319.7 245.1 319.7" id="path1" stroke="none" fill="#41B0F6"/><path d="M528.6 346.9C524.2 344.2 518 342.5 512.9 342.5 498.7 342.5 487.8 353.2 487.8 367.7 487.8 377.8 495.3 382.5 504.6 382.5 511 382.5 517.2 381 522.7 377.6L518.5 403C508.9 406 498.7 407 488.6 407 467 407 446 399.3 446 373.4 446 336.1 473.4 318 507.1 318 516.4 318 525.9 318.8 534.9 321.7" id="path2" stroke="none" fill="#41B0F6"/><path d="M613.2 343.7C605.4 340.5 597 338.3 588.5 338.3 584.9 338.3 575.3 338.6 575.3 344 575.3 353.7 614.8 351.2 614.8 373.4 614.8 402.3 584.9 407 562.9 407 551.5 407 540.1 405.3 529.1 402.3L535.6 378.9C543.4 383.2 552.4 385.9 561.4 385.9 565.5 385.9 576.9 385.6 576.9 379.5 576.9 371.4 538.4 374.3 538.4 350.1 538.4 323.2 570.2 317.7 590.5 317.7 600.6 317.7 610.6 319.4 620.4 321.7" id="path3" stroke="none" fill="#41B0F6"/><path d="M404.6 319.6C404.3 319.6 404.2 321.4 404.1 322.6 397.8 319.8 390 318.4 381.8 318.4 374.9 318.4 368.5 319.4 362.6 321.1L393.6 343.9 393.6 343.9C399.5 346.9 401.4 354.2 399.4 362.5 396.7 373.7 388.2 382.3 377.3 382.3 374 382.3 371.4 381.5 369.3 380.2L369.3 380.2 369.2 380.1 368.2 379.3 329.3 349.1C327.3 353.4 326 357.9 325.3 362.6 321.8 387.5 337.6 406.6 369.3 406.6 374.7 406.6 381.6 404.2 388 400.2 387.6 402 387.3 403.7 387 405L427.7 405C428.2 401.1 428.2 396.8 430.3 386.2L444.1 319.5C437.2 319.7 404.6 319.6 404.6 319.6" id="path4" stroke="none" fill="#41B0F6"/><path d="M270.1 305.2 267.2 319.6 253.3 319.6 248.2 344.1 262.1 344.1 255.9 373.8C255.1 377.7 254.6 381.5 254.6 385.6 254.6 401.9 264.7 406.9 279.1 406.9 291.2 406.9 301.5 404.6 307.7 402.7L311.8 378C309 379 305.9 379.5 303 379.5 298.6 379.5 296 377.8 296 373 296 371.5 296.2 370.1 296.5 368.6L301.6 344.1 319.4 344.1 319.9 341.7 272.1 304.6" id="path5" stroke="none" fill="#41B0F6"/><path d="M258.8 255.2C258.8 266.6 249.9 275.8 238.8 275.8 227.8 275.8 218.8 266.6 218.8 255.2 218.8 243.8 227.7 234.7 238.8 234.7 249.9 234.7 258.8 243.9 258.8 255.2" id="path6" stroke="none" fill="#41B0F6"/></svg>